<?xml version="1.0" encoding="utf-8"?>
<!-- Generator: Adobe Illustrator 16.0.0, SVG Export Plug-In . SVG Version: 6.00 Build 0)  -->
<!DOCTYPE svg PUBLIC "-//W3C//DTD SVG 1.1//EN" "http://www.w3.org/Graphics/SVG/1.1/DTD/svg11.dtd">
<svg version="1.1" id="Capa_1" xmlns="http://www.w3.org/2000/svg" xmlns:xlink="http://www.w3.org/1999/xlink" x="0px" y="0px"
	 width="99.3px" height="68px" viewBox="0 0 99.3 68" enable-background="new 0 0 99.3 68" xml:space="preserve">
<title>logo_lockup_firebase_horizontal_knockout</title>
<desc>Created with Sketch.</desc>
<g id="Page-1">
	<g id="Group-16" transform="translate(40.000000, 1187.000000)">
		<g id="Group-9" transform="translate(114.000000, 0.000000)">
		</g>
	</g>
</g>
<g id="Group-27" transform="translate(812.000000, 0.000000)">
	<g id="logo_lockup_firebase_horizontal_knockout" transform="translate(41.546961, 126.408840)">
		<path id="icon" d="M-821.7-84.7l6-38.8c0.1-0.6,0.5-1.1,1.1-1.2c0.6-0.1,1.2,0.2,1.5,0.7l6.5,12.2L-821.7-84.7z M-778.8-75.3
			l-5.7-35.7c-0.1-0.5-0.5-0.9-0.9-1.1c-0.5-0.2-1,0-1.4,0.3l-36.2,36.4l20,11.3c1.3,0.7,2.8,0.7,4,0L-778.8-75.3z M-795.1-106.4
			l-4.6-8.9c-0.2-0.5-0.7-0.7-1.2-0.7s-1,0.3-1.2,0.7l-20.4,36.5L-795.1-106.4z"/>
	</g>
</g>
</svg>
