<?xml version="1.0" encoding="utf-8"?>
<!-- Generator: Adobe Illustrator 16.0.0, SVG Export Plug-In . SVG Version: 6.00 Build 0)  -->
<!DOCTYPE svg PUBLIC "-//W3C//DTD SVG 1.1//EN" "http://www.w3.org/Graphics/SVG/1.1/DTD/svg11.dtd">
<svg version="1.1" id="Capa_1" xmlns="http://www.w3.org/2000/svg" xmlns:xlink="http://www.w3.org/1999/xlink" x="0px" y="0px"
	 width="1123.4px" height="1132.4px" viewBox="0 0 1123.4 1132.4" enable-background="new 0 0 1123.4 1132.4" xml:space="preserve">
<g>
	<path d="M921.6,490.5C896.1,404.4,813.5,360.9,724,386c-28.8,8.1-57.5,17.4-86.9,22.5c-56.7,9.9-82.9-3.9-105.4-56.3
		c-13.3-31-22.4-63.8-32.8-96C473.9,180,401,132.6,327.2,145.2c-78.5,13.4-133,79.1-132.5,160.1c0.6,108.6,95.6,180.3,200.3,151.6
		c33.9-9.3,67.9-18.5,102.4-24.8c40.8-7.4,72.3,8.4,88.6,47.3c13.6,32.3,25.4,65.5,35.9,99c28.6,90.9,108.1,138.1,192.7,113.4
		C900.4,666.8,947.6,578,921.6,490.5z"/>
	<path d="M511.9,677.8c-86.7-0.3-156.5,69.9-155.9,156.7c0.5,88,68.5,154.9,157,154.7c87.3-0.3,154.8-69.5,153.8-157.6
		C665.8,746.4,597,678.1,511.9,677.8z"/>
</g>
</svg>
